<mxfile host="app.diagrams.net" modified="2024-02-17T14:57:31.881Z" agent="Mozilla/5.0 (Windows NT 10.0; Win64; x64) AppleWebKit/537.36 (KHTML, like Gecko) Chrome/121.0.0.0 Safari/537.36 Edg/121.0.0.0" etag="edG5wTkuvsa8nLfG4hRM" version="23.1.5" type="github">
  <diagram name="第 1 页" id="mEeOOFpHyjPsQEGlPZtG">
    <mxGraphModel dx="1166" dy="676" grid="1" gridSize="10" guides="1" tooltips="1" connect="1" arrows="1" fold="1" page="1" pageScale="1" pageWidth="827" pageHeight="1169" math="0" shadow="0">
      <root>
        <mxCell id="0" />
        <mxCell id="1" parent="0" />
        <mxCell id="8aP-ZItPVS8c_n0urAvp-1" value="&lt;b&gt;一级预防&lt;/b&gt;" style="rounded=1;whiteSpace=wrap;html=1;" vertex="1" parent="1">
          <mxGeometry x="369" y="380" width="90" height="30" as="geometry" />
        </mxCell>
        <mxCell id="8aP-ZItPVS8c_n0urAvp-2" value="&lt;b&gt;二级预防&lt;/b&gt;" style="rounded=1;whiteSpace=wrap;html=1;" vertex="1" parent="1">
          <mxGeometry x="369" y="410" width="91" height="30" as="geometry" />
        </mxCell>
        <mxCell id="8aP-ZItPVS8c_n0urAvp-3" value="&lt;b&gt;三级预防&lt;/b&gt;" style="rounded=1;whiteSpace=wrap;html=1;" vertex="1" parent="1">
          <mxGeometry x="369" y="440" width="91" height="30" as="geometry" />
        </mxCell>
        <mxCell id="8aP-ZItPVS8c_n0urAvp-4" value="防止龋病并发症" style="rounded=0;whiteSpace=wrap;html=1;" vertex="1" parent="1">
          <mxGeometry x="440" y="120" width="90" height="20" as="geometry" />
        </mxCell>
        <mxCell id="8aP-ZItPVS8c_n0urAvp-5" value="了解龋病发生的知识，树立自我保健意识，养成口" style="rounded=0;whiteSpace=wrap;html=1;" vertex="1" parent="1">
          <mxGeometry x="45" y="60" width="280" height="20" as="geometry" />
        </mxCell>
        <mxCell id="8aP-ZItPVS8c_n0urAvp-6" value="牙髓炎、根尖周炎，牙槽脓肿" style="rounded=0;whiteSpace=wrap;html=1;" vertex="1" parent="1">
          <mxGeometry x="605" y="250" width="160" height="20" as="geometry" />
        </mxCell>
        <mxCell id="8aP-ZItPVS8c_n0urAvp-7" value="早期龋充填" style="rounded=0;whiteSpace=wrap;html=1;" vertex="1" parent="1">
          <mxGeometry x="235" y="240" width="70" height="20" as="geometry" />
        </mxCell>
        <mxCell id="8aP-ZItPVS8c_n0urAvp-8" value="&lt;div style=&quot;&quot;&gt;&lt;span style=&quot;background-color: initial;&quot;&gt;窝沟封闭、防龋涂料&lt;/span&gt;&lt;/div&gt;" style="rounded=0;whiteSpace=wrap;html=1;align=center;" vertex="1" parent="1">
          <mxGeometry x="57.5" y="270" width="120" height="20" as="geometry" />
        </mxCell>
        <mxCell id="8aP-ZItPVS8c_n0urAvp-9" value="拔牙" style="rounded=0;whiteSpace=wrap;html=1;" vertex="1" parent="1">
          <mxGeometry x="105" y="410" width="50" height="20" as="geometry" />
        </mxCell>
        <mxCell id="8aP-ZItPVS8c_n0urAvp-10" value="氟化物" style="rounded=0;whiteSpace=wrap;html=1;" vertex="1" parent="1">
          <mxGeometry x="445" y="220" width="50" height="20" as="geometry" />
        </mxCell>
        <mxCell id="8aP-ZItPVS8c_n0urAvp-11" value="牙列缺失，及时修复" style="rounded=0;whiteSpace=wrap;html=1;" vertex="1" parent="1">
          <mxGeometry x="590" y="460" width="120" height="20" as="geometry" />
        </mxCell>
        <mxCell id="8aP-ZItPVS8c_n0urAvp-12" value="早期诊断早期处理" style="rounded=0;whiteSpace=wrap;html=1;" vertex="1" parent="1">
          <mxGeometry x="400" y="545" width="100" height="20" as="geometry" />
        </mxCell>
        <mxCell id="8aP-ZItPVS8c_n0urAvp-13" value="定期检查" style="rounded=0;whiteSpace=wrap;html=1;" vertex="1" parent="1">
          <mxGeometry x="670" y="70" width="60" height="20" as="geometry" />
        </mxCell>
        <mxCell id="8aP-ZItPVS8c_n0urAvp-14" value="X线辅助检查" style="rounded=0;whiteSpace=wrap;html=1;" vertex="1" parent="1">
          <mxGeometry x="550" y="330" width="80" height="20" as="geometry" />
        </mxCell>
        <mxCell id="8aP-ZItPVS8c_n0urAvp-15" value="普及口腔健康知识" style="rounded=0;whiteSpace=wrap;html=1;" vertex="1" parent="1">
          <mxGeometry x="115" y="565" width="100" height="20" as="geometry" />
        </mxCell>
        <mxCell id="8aP-ZItPVS8c_n0urAvp-16" value="控制及消除危险因素" style="rounded=0;whiteSpace=wrap;html=1;" vertex="1" parent="1">
          <mxGeometry x="680" y="585" width="120" height="20" as="geometry" />
        </mxCell>
        <mxCell id="8aP-ZItPVS8c_n0urAvp-17" value="旨在减少人群中牙周病新病例的发生。" style="rounded=0;whiteSpace=wrap;html=1;" vertex="1" parent="1">
          <mxGeometry x="150" y="910" width="210" height="20" as="geometry" />
        </mxCell>
        <mxCell id="8aP-ZItPVS8c_n0urAvp-18" value="修复失牙，重建功能。" style="rounded=0;whiteSpace=wrap;html=1;" vertex="1" parent="1">
          <mxGeometry x="140" y="1030" width="130" height="20" as="geometry" />
        </mxCell>
        <mxCell id="8aP-ZItPVS8c_n0urAvp-19" value="健康教育和指导，清除菌斑和刺激因子" style="rounded=0;whiteSpace=wrap;html=1;" vertex="1" parent="1">
          <mxGeometry x="105" y="740" width="210" height="20" as="geometry" />
        </mxCell>
        <mxCell id="8aP-ZItPVS8c_n0urAvp-20" value="正确刷牙，提高宿主抗病能力" style="rounded=0;whiteSpace=wrap;html=1;" vertex="1" parent="1">
          <mxGeometry x="450" y="850" width="170" height="20" as="geometry" />
        </mxCell>
        <mxCell id="8aP-ZItPVS8c_n0urAvp-21" value="定期口腔保健。" style="rounded=0;whiteSpace=wrap;html=1;" vertex="1" parent="1">
          <mxGeometry x="90" y="830" width="90" height="20" as="geometry" />
        </mxCell>
        <mxCell id="8aP-ZItPVS8c_n0urAvp-22" value="早期发现、早期诊断、早期治疗" style="rounded=0;whiteSpace=wrap;html=1;" vertex="1" parent="1">
          <mxGeometry x="365" y="960" width="180" height="30" as="geometry" />
        </mxCell>
        <mxCell id="8aP-ZItPVS8c_n0urAvp-23" value="减轻已发生的牙周病的严重程度，控其发展。" style="rounded=0;whiteSpace=wrap;html=1;" vertex="1" parent="1">
          <mxGeometry x="550" y="1040" width="250" height="20" as="geometry" />
        </mxCell>
        <mxCell id="8aP-ZItPVS8c_n0urAvp-24" value="龋病" style="rounded=1;whiteSpace=wrap;html=1;" vertex="1" parent="1">
          <mxGeometry x="445" y="770" width="40" height="30" as="geometry" />
        </mxCell>
        <mxCell id="8aP-ZItPVS8c_n0urAvp-25" value="牙周病" style="rounded=1;whiteSpace=wrap;html=1;" vertex="1" parent="1">
          <mxGeometry x="570" y="640" width="50" height="30" as="geometry" />
        </mxCell>
        <mxCell id="8aP-ZItPVS8c_n0urAvp-26" value="洁治，去除菌斑和牙石" style="rounded=0;whiteSpace=wrap;html=1;" vertex="1" parent="1">
          <mxGeometry x="590" y="730" width="130" height="30" as="geometry" />
        </mxCell>
        <mxCell id="8aP-ZItPVS8c_n0urAvp-27" value="牙周病发展到严重和晚期采取的治疗措施" style="rounded=0;whiteSpace=wrap;html=1;" vertex="1" parent="1">
          <mxGeometry x="560" y="910" width="230" height="30" as="geometry" />
        </mxCell>
        <mxCell id="8aP-ZItPVS8c_n0urAvp-28" value="针对牙周病病因" style="rounded=0;whiteSpace=wrap;html=1;" vertex="1" parent="1">
          <mxGeometry x="230" y="790" width="90" height="20" as="geometry" />
        </mxCell>
        <mxCell id="8aP-ZItPVS8c_n0urAvp-29" value="维护，维持疗效，预防复发。" style="rounded=0;whiteSpace=wrap;html=1;" vertex="1" parent="1">
          <mxGeometry x="35" y="1100" width="165" height="20" as="geometry" />
        </mxCell>
        <mxCell id="8aP-ZItPVS8c_n0urAvp-30" value="治疗全身性疾病，如糖尿病，增强牙周组织的抵抗力" style="rounded=0;whiteSpace=wrap;html=1;" vertex="1" parent="1">
          <mxGeometry x="50" y="660" width="290" height="30" as="geometry" />
        </mxCell>
      </root>
    </mxGraphModel>
  </diagram>
</mxfile>
